<svg width="22" height="28" viewBox="0 0 22 28" fill="none" xmlns="http://www.w3.org/2000/svg">
<path d="M10.7445 10.7573C10.4032 10.416 9.84849 10.4143 9.50549 10.7555L6.62499 13.6378L5.49449 12.5055C5.15324 12.1643 4.59848 12.1643 4.25723 12.5055C3.91598 12.8468 3.91598 13.4015 4.25723 13.7428L6.00723 15.4928C6.17698 15.6643 6.40099 15.75 6.62499 15.75C6.84899 15.75 7.07299 15.6643 7.24449 15.4945L10.7445 11.9945C11.0857 11.6533 11.0857 11.0985 10.7445 10.7573Z" fill="#37383C"/>
<path d="M10.7445 17.7572C10.4032 17.416 9.84849 17.4142 9.50549 17.7555L6.62499 20.6377L5.49449 19.5072C5.15324 19.166 4.59848 19.166 4.25723 19.5072C3.91598 19.8485 3.91598 20.4032 4.25723 20.7445L6.00723 22.4945C6.17698 22.6642 6.40099 22.75 6.62499 22.75C6.84899 22.75 7.07299 22.6642 7.24449 22.4945L10.7445 18.9945C11.0857 18.6532 11.0857 18.0985 10.7445 17.7572Z" fill="#37383C"/>
<path d="M17.125 12.25H13.625C13.142 12.25 12.75 12.642 12.75 13.125C12.75 13.608 13.142 14 13.625 14H17.125C17.608 14 18 13.608 18 13.125C18 12.642 17.608 12.25 17.125 12.25Z" fill="#37383C"/>
<path d="M17.125 19.25H13.625C13.142 19.25 12.75 19.642 12.75 20.125C12.75 20.608 13.142 21 13.625 21H17.125C17.608 21 18 20.608 18 20.125C18 19.642 17.608 19.25 17.125 19.25Z" fill="#37383C"/>
<path d="M19.75 3.5H16.25V2.625C16.25 2.142 15.858 1.75 15.375 1.75H13.4762C13.114 0.7315 12.141 0 11 0C9.859 0 8.886 0.7315 8.52375 1.75H6.625C6.142 1.75 5.75 2.142 5.75 2.625V3.5H2.25C1.28575 3.5 0.5 4.28575 0.5 5.25V26.25C0.5 27.2143 1.28575 28 2.25 28H19.75C20.7143 28 21.5 27.2143 21.5 26.25V5.25C21.5 4.28575 20.7143 3.5 19.75 3.5ZM7.5 3.5H9.25C9.733 3.5 10.125 3.108 10.125 2.625C10.125 2.142 10.517 1.75 11 1.75C11.483 1.75 11.875 2.142 11.875 2.625C11.875 3.108 12.267 3.5 12.75 3.5H14.5V5.25H7.5V3.5ZM19.75 26.25H2.25V5.25H5.75V6.125C5.75 6.608 6.142 7 6.625 7H15.375C15.858 7 16.25 6.608 16.25 6.125V5.25H19.75V26.25Z" fill="#37383C"/>
</svg>
