<svg width="25" height="25" viewBox="0 0 25 25" fill="none" xmlns="http://www.w3.org/2000/svg">
<path d="M22.0703 1.95312H20.8984V0H18.9453V1.95312H6.05469V0H4.10156V1.95312H2.92969C1.31416 1.95312 0 3.26729 0 4.88281V22.0703C0 23.6858 1.31416 25 2.92969 25H22.0703C23.6858 25 25 23.6858 25 22.0703V4.88281C25 3.26729 23.6858 1.95312 22.0703 1.95312ZM2.92969 3.90625H4.10156V5.85938H6.05469V3.90625H18.9453V5.85938H20.8984V3.90625H22.0703C22.6088 3.90625 23.0469 4.34437 23.0469 4.88281V7.22656H1.95312V4.88281C1.95312 4.34437 2.39124 3.90625 2.92969 3.90625ZM22.0703 23.0469H2.92969C2.39124 23.0469 1.95312 22.6088 1.95312 22.0703V9.17969H23.0469V22.0703C23.0469 22.6088 22.6088 23.0469 22.0703 23.0469ZM15.4297 20.9961H21.2891V15.1367H15.4297V20.9961ZM17.3828 17.0898H19.3359V19.043H17.3828V17.0898Z" fill="white"/>
</svg>
