<svg width="64" height="64" viewBox="0 0 64 64" fill="none" xmlns="http://www.w3.org/2000/svg">
<path d="M50.6491 53.8056L48.4628 10.7367C48.2361 6.27692 44.4373 2.84525 39.9775 3.07175L7.67582 4.71122C3.21625 4.93772 -0.215612 8.73641 0.0105006 13.1962L2.1969 56.2651C2.41506 60.562 5.95988 63.9354 10.2624 63.9409C10.4018 63.9409 10.5417 63.9372 10.6822 63.93L42.9837 62.2907C47.4437 62.0642 50.8756 58.2651 50.6491 53.8054V53.8056Z" fill="#25B6D2"/>
<path d="M62.3927 7.99326C61.1156 6.26898 59.2021 5.12735 57.0784 4.82244L25.0764 0.139677C20.6578 -0.507024 16.5516 2.55064 15.9047 6.96925V6.96964L9.66092 49.6387C9.05711 54.0465 12.0948 58.1256 16.4907 58.8102L48.4929 63.4931C52.9004 64.0971 56.9798 61.0593 57.6641 56.6634L63.9083 13.9939C64.2249 11.8717 63.6791 9.71093 62.3927 7.99326Z" fill="#FFD07D"/>
<path d="M54.2206 60.4609L22.2184 55.7779C17.8225 55.0936 14.7846 51.0144 15.3885 46.6067L21.6323 3.9372C21.8384 2.52385 22.4179 1.19104 23.3107 0.0762024C19.532 0.354913 16.4536 3.22023 15.9047 6.96943L9.66092 49.6387C9.05711 54.0465 12.0948 58.1256 16.4907 58.8102L48.4929 63.4931C51.3339 63.8857 54.1723 62.756 55.9664 60.5183C55.3842 60.5637 54.7986 60.5445 54.2206 60.4609Z" fill="#FFC55F"/>
<path d="M36.6224 41.7311L28.4988 40.4588L30.7081 26.3534L38.8317 27.6257L38.4479 30.0763L33.3151 29.2724L32.8301 32.3694L37.6058 33.1174L37.222 35.568L32.4462 34.82L31.8766 38.4573L37.0093 39.2612L36.6224 41.7311ZM52.0882 44.1534L48.2869 43.5581L43.822 31.9263L43.7352 31.9127C43.5622 33.8164 43.4128 35.1703 43.2869 35.9743L42.2472 42.6121L39.5747 42.1935L41.784 28.0881L45.5563 28.679L50.0282 40.2031L50.0957 40.2137C50.2863 38.3654 50.4411 37.0618 50.56 36.3029L51.6056 29.6264L54.2974 30.048L52.0882 44.1534Z" fill="white"/>
</svg>
