<svg width="32" height="32" viewBox="0 0 32 32" fill="none" xmlns="http://www.w3.org/2000/svg">
<path d="M20.9873 16C20.9873 13.25 18.75 11.0127 16 11.0127L15.3745 11.9597L16 12.8877C17.7161 12.8877 19.1123 14.2839 19.1123 16C19.1123 17.7161 17.7161 19.1123 16 19.1123L15.3745 20.1044L16 20.9873C18.75 20.9873 20.9873 18.75 20.9873 16Z" fill="white"/>
<path d="M16 5.03763L15.3745 5.97513L16 6.91263C21.0108 6.91263 25.0874 10.9893 25.0874 16C25.0874 21.0108 21.0108 25.0874 16 25.0874L15.3745 26.0249L16 26.9624C22.0447 26.9624 26.9624 22.0446 26.9624 16C26.9624 9.95538 22.0447 5.03763 16 5.03763Z" fill="white"/>
<path d="M6.9126 16C6.9126 10.9892 10.9892 6.91263 16 6.91263V5.03763C9.95529 5.03763 5.0376 9.95538 5.0376 16C5.0376 22.0446 9.95529 26.9624 16 26.9624V25.0874C10.9892 25.0874 6.9126 21.0108 6.9126 16Z" fill="white"/>
<path d="M15.0625 2.9852H16.9375V8.96507H15.0625V2.9852Z" fill="white"/>
<path d="M23.035 15.0625H29.0149V16.9375H23.035V15.0625Z" fill="white"/>
<path d="M15.0625 23.035H16.9375V29.0149H15.0625V23.035Z" fill="white"/>
<path d="M2.98523 15.0625H8.96511V16.9375H2.98523V15.0625Z" fill="white"/>
<path d="M12.8878 16C12.8878 14.2839 14.2839 12.8877 16.0001 12.8877V11.0127C13.2501 11.0127 11.0128 13.25 11.0128 16C11.0128 18.75 13.2501 20.9873 16.0001 20.9873V19.1123C14.2839 19.1123 12.8878 17.7161 12.8878 16Z" fill="white"/>
</svg>
