<svg width="20" height="24" viewBox="0 0 20 24" fill="none" xmlns="http://www.w3.org/2000/svg">
<path d="M8.00171 1.44873H12.0128V2.12366H13.4614V1.35425C13.4616 0.607544 12.8544 0 12.108 0H7.90649C7.16016 0 6.55298 0.607544 6.55298 1.35425V2.12366H8.00171V1.44873Z" fill="#C4C4C4"/>
<path d="M16.8067 7.86328H3.20787C2.83525 7.86328 2.54191 8.18115 2.57194 8.55267L3.70884 22.6108C3.7722 23.3956 4.4268 24 5.21324 24H14.8012C15.5876 24 16.2422 23.3956 16.3056 22.6106L17.4425 8.55267C17.4727 8.18115 17.1794 7.86328 16.8067 7.86328ZM6.50065 22.5005C6.48545 22.5015 6.47026 22.502 6.45524 22.502C6.07548 22.502 5.75669 22.2063 5.73307 21.8221L5.02061 10.2812C4.99607 9.88184 5.29985 9.53815 5.69902 9.51361C6.0969 9.48944 6.44206 9.79248 6.46659 10.192L7.17887 21.733C7.20359 22.1323 6.89982 22.4758 6.50065 22.5005ZM10.7397 21.7776C10.7397 22.1776 10.4154 22.5018 10.0154 22.5018C9.61528 22.5018 9.291 22.1776 9.291 21.7776V10.2365C9.291 9.83643 9.61528 9.51215 10.0154 9.51215C10.4153 9.51215 10.7397 9.83643 10.7397 10.2365V21.7776ZM14.994 10.2792L14.3138 21.8201C14.2912 22.205 13.9719 22.5018 13.5914 22.5018C13.5771 22.5018 13.5627 22.5015 13.5482 22.5007C13.1488 22.4771 12.8442 22.1343 12.8678 21.735L13.5478 10.1938C13.5713 9.79449 13.9129 9.48981 14.3134 9.51343C14.7127 9.53687 15.0174 9.87982 14.994 10.2792Z" fill="#C4C4C4"/>
<path d="M19.3116 5.62793L18.8359 4.2019C18.7105 3.82599 18.3586 3.57239 17.9621 3.57239H2.05228C1.65604 3.57239 1.30393 3.82599 1.17869 4.2019L0.702978 5.62793C0.611242 5.90295 0.730627 6.18347 0.953466 6.32336C1.04429 6.38031 1.15177 6.41455 1.26987 6.41455H18.7447C18.8628 6.41455 18.9705 6.38031 19.0611 6.32318C19.284 6.18329 19.4034 5.90277 19.3116 5.62793Z" fill="#C4C4C4"/>
</svg>
