<svg width="22" height="22" viewBox="0 0 22 22" fill="none" xmlns="http://www.w3.org/2000/svg">
<path d="M18.7817 3.219C14.4905 -1.07215 7.50951 -1.07215 3.21836 3.219C-1.07279 7.50921 -1.07279 14.4921 3.21836 18.7823C5.36349 20.9283 8.18174 22.0004 11 22.0004C13.8182 22.0004 16.6365 20.9283 18.7816 18.7823C23.0728 14.4921 23.0728 7.50921 18.7817 3.219ZM11 18.3375C10.4937 18.3375 10.0829 17.9266 10.0829 17.4204C10.0829 16.9142 10.4937 16.5033 11 16.5033C11.5062 16.5033 11.9171 16.9142 11.9171 17.4204C11.9171 17.9266 11.5062 18.3375 11 18.3375ZM11.9171 13.7519C11.9171 14.2582 11.5072 14.669 11 14.669C10.4929 14.669 10.0829 14.2582 10.0829 13.7519V4.58091C10.0829 4.07466 10.4929 3.66382 11 3.66382C11.5072 3.66382 11.9171 4.07466 11.9171 4.58091V13.7519Z" fill="#FFD07D"/>
</svg>
