<svg width="20" height="20" viewBox="0 0 20 20" fill="none" xmlns="http://www.w3.org/2000/svg">
<path d="M11.6227 0.732372C11.3907 0.621705 11.1173 0.651038 10.9173 0.812372L4.432 6.00037H1.33333C0.598667 6.00037 0 6.59904 0 7.3337V12.667C0 13.403 0.598667 14.0004 1.33333 14.0004H4.432L10.916 19.1884C11.0373 19.2844 11.1853 19.3337 11.3333 19.3337C11.432 19.3337 11.5307 19.311 11.6227 19.267C11.8533 19.1564 12 18.923 12 18.667V1.33371C12 1.07771 11.8533 0.844372 11.6227 0.732372Z" fill="#C4C4C4"/>
<path d="M15.3746 5.28572C15.112 5.02705 14.6906 5.03105 14.432 5.29105C14.1733 5.55372 14.176 5.97505 14.4373 6.23505C15.4453 7.22972 16 8.56705 16 10.0004C16 11.4337 15.4453 12.7711 14.4373 13.7657C14.176 14.0231 14.1733 14.4457 14.432 14.7084C14.5626 14.8404 14.7346 14.9057 14.9053 14.9057C15.0746 14.9057 15.244 14.8417 15.3746 14.7124C16.6386 13.4684 17.3333 11.7937 17.3333 10.0004C17.3333 8.20705 16.6386 6.53239 15.3746 5.28572Z" fill="#C4C4C4"/>
<path d="M17.256 3.40705C16.9933 3.14705 16.572 3.14972 16.312 3.41105C16.0533 3.67239 16.056 4.09506 16.316 4.35372C17.832 5.85639 18.6667 7.86173 18.6667 10.0004C18.6667 12.1391 17.832 14.1431 16.316 15.6457C16.056 15.9057 16.0533 16.3284 16.312 16.5897C16.444 16.7204 16.6147 16.7857 16.7853 16.7857C16.9547 16.7857 17.1253 16.7217 17.256 16.5924C19.0267 14.8391 20 12.4977 20 10.0004C20 7.50306 19.0267 5.16172 17.256 3.40705Z" fill="#C4C4C4"/>
</svg>
