<svg viewBox="0 0 141 111" fill="none" xmlns="http://www.w3.org/2000/svg"><path d="M3.7 62.9a3.7 3.7 0 003.7-3.7v-7.4a3.7 3.7 0 00-7.4 0v7.4a3.7 3.7 0 003.7 3.7zm18.2 0V48.1a3.7 3.7 0 10-7.4 0v14.8a3.7 3.7 0 107.4 0zm14.8 14.8V33.3a3.7 3.7 0 10-7.4 0v44.4a3.7 3.7 0 107.4 0zm14.8 7.4V25.9a3.7 3.7 0 10-7.4 0v59.2a3.7 3.7 0 107.4 0zm14.8 22.199V3.701a3.7 3.7 0 10-7.4 0v103.598a3.7 3.7 0 107.4 0zM136.699 48.1A3.7 3.7 0 00133 51.8v7.4a3.7 3.7 0 007.4 0v-7.4a3.7 3.7 0 00-3.701-3.7zM125.5 62.9V48.1a3.7 3.7 0 10-7.4 0v14.8a3.7 3.7 0 107.4 0zm-14.8 14.8V33.3a3.7 3.7 0 10-7.4 0v44.4a3.7 3.7 0 107.4 0zm-14.8 7.4V25.9a3.7 3.7 0 10-7.4 0v59.2a3.7 3.7 0 107.4 0zm-14.8 22.199V3.701a3.7 3.7 0 10-7.4 0v103.598a3.7 3.7 0 107.4 0z" fill="#000"/></svg>